<mxfile host="www.draw.io" modified="2020-01-07T04:11:06.382Z" agent="Mozilla/5.0 (Macintosh; Intel Mac OS X 10_14_6) AppleWebKit/537.36 (KHTML, like Gecko) Chrome/79.0.3945.88 Safari/537.36" etag="IKYVSrLBAx3t2aUholNH" version="12.4.8" type="github">
  <diagram id="7CWUEKGW7iBQy1cK7yMm" name="Page-1">
    <mxGraphModel dx="1426" dy="842" grid="1" gridSize="10" guides="1" tooltips="1" connect="1" arrows="1" fold="1" page="1" pageScale="1" pageWidth="850" pageHeight="1100" math="0" shadow="0">
      <root>
        <mxCell id="0"/>
        <mxCell id="1" parent="0"/>
        <mxCell id="PRXkoPq4WOW4vHOm3imV-2" value="" style="shape=hexagon;perimeter=hexagonPerimeter2;whiteSpace=wrap;html=1;fillColor=#d5e8d4;strokeColor=#82b366;" parent="1" vertex="1">
          <mxGeometry x="460" y="141" width="300" height="300" as="geometry"/>
        </mxCell>
        <mxCell id="PRXkoPq4WOW4vHOm3imV-3" value="Customer Service" style="text;html=1;resizable=0;autosize=1;align=center;verticalAlign=middle;points=[];fillColor=none;strokeColor=none;rounded=0;fontSize=20;" parent="1" vertex="1">
          <mxGeometry x="525" y="166" width="170" height="30" as="geometry"/>
        </mxCell>
        <mxCell id="PRXkoPq4WOW4vHOm3imV-24" value="" style="shape=image;imageAspect=0;aspect=fixed;verticalLabelPosition=bottom;verticalAlign=top;labelBackgroundColor=none;gradientColor=none;image=https://www.stickpng.com/assets/images/584809c9cef1014c0b5e4909.png;" parent="1" vertex="1">
          <mxGeometry x="525" y="560" width="178.42" height="290" as="geometry"/>
        </mxCell>
        <mxCell id="qS-tOZRlUFg_2kntw544-2" value="" style="group" vertex="1" connectable="0" parent="1">
          <mxGeometry x="80" y="740" width="300" height="300" as="geometry"/>
        </mxCell>
        <mxCell id="qS-tOZRlUFg_2kntw544-1" value="" style="group" vertex="1" connectable="0" parent="qS-tOZRlUFg_2kntw544-2">
          <mxGeometry width="300" height="300" as="geometry"/>
        </mxCell>
        <mxCell id="PRXkoPq4WOW4vHOm3imV-21" value="" style="shape=hexagon;perimeter=hexagonPerimeter2;whiteSpace=wrap;html=1;fillColor=#d5e8d4;strokeColor=#82b366;" parent="qS-tOZRlUFg_2kntw544-1" vertex="1">
          <mxGeometry width="300" height="300" as="geometry"/>
        </mxCell>
        <mxCell id="PRXkoPq4WOW4vHOm3imV-25" value="Event Service" style="text;html=1;resizable=0;autosize=1;align=center;verticalAlign=middle;points=[];fillColor=none;strokeColor=none;rounded=0;fontSize=20;" parent="qS-tOZRlUFg_2kntw544-1" vertex="1">
          <mxGeometry x="80" y="32" width="140" height="30" as="geometry"/>
        </mxCell>
        <mxCell id="qS-tOZRlUFg_2kntw544-15" value="" style="startArrow=oval;startFill=0;startSize=7;endArrow=block;endFill=0;endSize=10;dashed=1;html=1;fontSize=20;" edge="1" parent="qS-tOZRlUFg_2kntw544-1">
          <mxGeometry width="100" relative="1" as="geometry">
            <mxPoint x="260" y="61" as="sourcePoint"/>
            <mxPoint x="440" y="-20" as="targetPoint"/>
          </mxGeometry>
        </mxCell>
        <mxCell id="qS-tOZRlUFg_2kntw544-19" value="Publish Events" style="rounded=1;whiteSpace=wrap;html=1;absoluteArcSize=1;arcSize=14;strokeWidth=2;fillColor=#ffe6cc;strokeColor=#d79b00;" vertex="1" parent="qS-tOZRlUFg_2kntw544-1">
          <mxGeometry x="105.25" y="105.25" width="89.5" height="89.5" as="geometry"/>
        </mxCell>
        <mxCell id="qS-tOZRlUFg_2kntw544-8" value="" style="group" vertex="1" connectable="0" parent="1">
          <mxGeometry x="80" y="91" width="300" height="350" as="geometry"/>
        </mxCell>
        <mxCell id="PRXkoPq4WOW4vHOm3imV-1" value="" style="shape=hexagon;perimeter=hexagonPerimeter2;whiteSpace=wrap;html=1;fillColor=#d5e8d4;strokeColor=#82b366;" parent="qS-tOZRlUFg_2kntw544-8" vertex="1">
          <mxGeometry y="50" width="300" height="300" as="geometry"/>
        </mxCell>
        <mxCell id="PRXkoPq4WOW4vHOm3imV-6" value="Order Service" style="text;html=1;resizable=0;autosize=1;align=center;verticalAlign=middle;points=[];fillColor=none;strokeColor=none;rounded=0;fontSize=20;" parent="qS-tOZRlUFg_2kntw544-8" vertex="1">
          <mxGeometry x="80" y="75" width="140" height="30" as="geometry"/>
        </mxCell>
        <mxCell id="PRXkoPq4WOW4vHOm3imV-7" value="" style="ellipse;whiteSpace=wrap;html=1;aspect=fixed;" parent="qS-tOZRlUFg_2kntw544-8" vertex="1">
          <mxGeometry x="135" width="30" height="30" as="geometry"/>
        </mxCell>
        <mxCell id="PRXkoPq4WOW4vHOm3imV-9" value="" style="endArrow=none;html=1;" parent="qS-tOZRlUFg_2kntw544-8" edge="1">
          <mxGeometry width="50" height="50" relative="1" as="geometry">
            <mxPoint x="150" y="50" as="sourcePoint"/>
            <mxPoint x="149.5" y="30" as="targetPoint"/>
          </mxGeometry>
        </mxCell>
        <mxCell id="PRXkoPq4WOW4vHOm3imV-12" value="POST /order" style="text;html=1;resizable=0;autosize=1;align=center;verticalAlign=middle;points=[];fillColor=none;strokeColor=none;rounded=0;" parent="qS-tOZRlUFg_2kntw544-8" vertex="1">
          <mxGeometry x="170" width="80" height="20" as="geometry"/>
        </mxCell>
        <mxCell id="PRXkoPq4WOW4vHOm3imV-17" value="Create Saga" style="rounded=1;whiteSpace=wrap;html=1;absoluteArcSize=1;arcSize=14;strokeWidth=2;fillColor=#ffe6cc;strokeColor=#d79b00;" parent="qS-tOZRlUFg_2kntw544-8" vertex="1">
          <mxGeometry x="120.5" y="170.5" width="59" height="59" as="geometry"/>
        </mxCell>
        <mxCell id="PRXkoPq4WOW4vHOm3imV-18" value="Create Reserve Credit Event" style="rounded=1;whiteSpace=wrap;html=1;absoluteArcSize=1;arcSize=14;strokeWidth=2;fillColor=#ffe6cc;strokeColor=#d79b00;" parent="qS-tOZRlUFg_2kntw544-8" vertex="1">
          <mxGeometry x="220" y="170.5" width="59" height="59" as="geometry"/>
        </mxCell>
        <mxCell id="PRXkoPq4WOW4vHOm3imV-19" value="Create Order" style="rounded=1;whiteSpace=wrap;html=1;absoluteArcSize=1;arcSize=14;strokeWidth=2;fillColor=#ffe6cc;strokeColor=#d79b00;" parent="qS-tOZRlUFg_2kntw544-8" vertex="1">
          <mxGeometry x="21" y="170.5" width="59" height="59" as="geometry"/>
        </mxCell>
        <mxCell id="PRXkoPq4WOW4vHOm3imV-20" value="ALL OR NOTHING" style="rounded=1;whiteSpace=wrap;html=1;fillColor=#f5f5f5;strokeColor=#666666;fontColor=#333333;" parent="qS-tOZRlUFg_2kntw544-8" vertex="1">
          <mxGeometry x="70" y="259" width="160" height="60" as="geometry"/>
        </mxCell>
        <mxCell id="qS-tOZRlUFg_2kntw544-5" value="" style="endArrow=block;endFill=1;endSize=6;html=1;fontSize=20;entryX=0.313;entryY=0;entryDx=0;entryDy=0;entryPerimeter=0;" edge="1" parent="qS-tOZRlUFg_2kntw544-8" target="PRXkoPq4WOW4vHOm3imV-20">
          <mxGeometry width="100" relative="1" as="geometry">
            <mxPoint x="50" y="229.5" as="sourcePoint"/>
            <mxPoint x="70" y="259" as="targetPoint"/>
            <Array as="points"/>
          </mxGeometry>
        </mxCell>
        <mxCell id="qS-tOZRlUFg_2kntw544-9" value="" style="endArrow=block;endFill=1;endSize=6;html=1;fontSize=20;exitX=0.5;exitY=1;exitDx=0;exitDy=0;" edge="1" parent="qS-tOZRlUFg_2kntw544-8" source="PRXkoPq4WOW4vHOm3imV-17" target="PRXkoPq4WOW4vHOm3imV-20">
          <mxGeometry width="100" relative="1" as="geometry">
            <mxPoint x="150" y="239" as="sourcePoint"/>
            <mxPoint x="130.07999999999993" y="269" as="targetPoint"/>
            <Array as="points"/>
          </mxGeometry>
        </mxCell>
        <mxCell id="qS-tOZRlUFg_2kntw544-10" value="" style="endArrow=block;endFill=1;endSize=6;html=1;fontSize=20;entryX=0.313;entryY=0;entryDx=0;entryDy=0;entryPerimeter=0;exitX=0.5;exitY=1;exitDx=0;exitDy=0;" edge="1" parent="qS-tOZRlUFg_2kntw544-8" source="PRXkoPq4WOW4vHOm3imV-18">
          <mxGeometry width="100" relative="1" as="geometry">
            <mxPoint x="250" y="239" as="sourcePoint"/>
            <mxPoint x="180.07999999999993" y="259" as="targetPoint"/>
            <Array as="points"/>
          </mxGeometry>
        </mxCell>
        <mxCell id="qS-tOZRlUFg_2kntw544-11" value="" style="endArrow=block;endFill=1;endSize=6;html=1;fontSize=20;entryX=0.5;entryY=1;entryDx=0;entryDy=0;" edge="1" parent="1" source="qS-tOZRlUFg_2kntw544-20" target="qS-tOZRlUFg_2kntw544-14">
          <mxGeometry width="100" relative="1" as="geometry">
            <mxPoint x="229.5" y="740" as="sourcePoint"/>
            <mxPoint x="229.5" y="670" as="targetPoint"/>
          </mxGeometry>
        </mxCell>
        <mxCell id="qS-tOZRlUFg_2kntw544-13" value="" style="endArrow=block;endFill=1;endSize=6;html=1;fontSize=20;exitX=0.5;exitY=1;exitDx=0;exitDy=0;entryX=0.5;entryY=0;entryDx=0;entryDy=0;" edge="1" parent="1" source="PRXkoPq4WOW4vHOm3imV-20" target="qS-tOZRlUFg_2kntw544-14">
          <mxGeometry width="100" relative="1" as="geometry">
            <mxPoint x="229.5" y="420" as="sourcePoint"/>
            <mxPoint x="229.35615902871996" y="480" as="targetPoint"/>
          </mxGeometry>
        </mxCell>
        <mxCell id="qS-tOZRlUFg_2kntw544-14" value="" style="shape=image;imageAspect=0;aspect=fixed;verticalLabelPosition=bottom;verticalAlign=top;labelBackgroundColor=none;gradientColor=none;fontSize=20;image=data:image/png,iVBORw0KGgoAAAANSUhEUgAAAiAAAAFjCAYAAAAErbBDAAAAAXNSR0IArs4c6QAAAAlwSFlzAAALEwAACxMBAJqcGAAABCRpVFh0WE1MOmNvbS5hZG9iZS54bXAAAAAAADx4OnhtcG1ldGEgeG1sbnM6eD0iYWRvYmU6bnM6bWV0YS8iIHg6eG1wdGs9IlhNUCBDb3JlIDUuNC4wIj4KICAgPHJkZjpSREYgeG1sbnM6cmRmPSJodHRwOi8vd3d3LnczLm9yZy8xOTk5LzAyLzIyLXJkZi1zeW50YXgtbnMjIj4KICAgICAgPHJkZjpEZXNjcmlwdGlvbiByZGY6YWJvdXQ9IiIKICAgICAgICAgICAgeG1sbnM6dGlmZj0iaHR0cDovL25zLmFkb2JlLmNvbS90aWZmLzEuMC8iCiAgICAgICAgICAgIHhtbG5zOmV4aWY9Imh0dHA6Ly9ucy5hZG9iZS5jb20vZXhpZi8xLjAvIgogICAgICAgICAgICB4bWxuczpkYz0iaHR0cDovL3B1cmwub3JnL2RjL2VsZW1lbnRzLzEuMS8iCiAgICAgICAgICAgIHhtbG5zOnhtcD0iaHR0cDovL25zLmFkb2JlLmNvbS94YXAvMS4wLyI+CiAgICAgICAgIDx0aWZmOlJlc29sdXRpb25Vbml0PjI8L3RpZmY6UmVzb2x1dGlvblVuaXQ+CiAgICAgICAgIDx0aWZmOkNvbXByZXNzaW9uPjA8L3RpZmY6Q29tcHJlc3Npb24+CiAgICAgICAgIDx0aWZmOlhSZXNvbHV0aW9uPjcyPC90aWZmOlhSZXNvbHV0aW9uPgogICAgICAgICA8dGlmZjpPcmllbnRhdGlvbj4xPC90aWZmOk9yaWVudGF0aW9uPgogICAgICAgICA8dGlmZjpZUmVzb2x1dGlvbj43MjwvdGlmZjpZUmVzb2x1dGlvbj4KICAgICAgICAgPGV4aWY6UGl4ZWxYRGltZW5zaW9uPjU0NDwvZXhpZjpQaXhlbFhEaW1lbnNpb24+CiAgICAgICAgIDxleGlmOkNvbG9yU3BhY2U+MTwvZXhpZjpDb2xvclNwYWNlPgogICAgICAgICA8ZXhpZjpQaXhlbFlEaW1lbnNpb24+MzU1PC9leGlmOlBpeGVsWURpbWVuc2lvbj4KICAgICAgICAgPGRjOnN1YmplY3Q+CiAgICAgICAgICAgIDxyZGY6QmFnLz4KICAgICAgICAgPC9kYzpzdWJqZWN0PgogICAgICAgICA8eG1wOk1vZGlmeURhdGU+MjAyMC0wMS0wNlQyMTowMTozNzwveG1wOk1vZGlmeURhdGU+CiAgICAgICAgIDx4bXA6Q3JlYXRvclRvb2w+UGl4ZWxtYXRvciAzLjk8L3htcDpDcmVhdG9yVG9vbD4KICAgICAgPC9yZGY6RGVzY3JpcHRpb24+CiAgIDwvcmRmOlJERj4KPC94OnhtcG1ldGE+Ckx2wK8AADKGSURBVHgB7d1fchNH1/jxaWlcIVc//+6BVy6gYioXcVaAWAHOCoAVhKwAWEHCCjAriFkBYgVRLlJxCij7Ae5fP1c4ZUn9niNphGzrz0jqmenu+ToVJEujntOflkdH3T09JuGnFgKfbu+2taImMXs2sdujStsf5JHx/eEj7dHj/IsAAggUJtC5VPJb/V2OTadybOrq/V7vWnfnpHuq9/mJV8DEW7X61UyTDGuSlrFJS2p/byzQHt9ygwACCAQmoAmJ0UTkrRzbTuTYdnLj/VEnsEoQ7hwBEpA5ML4/PO7RaCeJ/cFY6dWQxMP3mIkPAQQQcCGgiYg1w+TkTymvQ4+JC9XyyyABKd985T0et/a2m81/24kZ3JMGa8s3gr2VC+EFCCCAQNQCtmslGUls422//02HIRz/G5sExNM2+nzn+73EDto2GTwk4fC0kQgLAQQ8Fhj2kLw2pnl4/d1fMpTDj28CJCAetYgmHQPbe9iwZp8hFY8ahlAQQCBoAR2yGRh72DDpK5IRf5qSBKTitjje3W2lveSR/IE8JOmouDHYPQIIRC8wmj+SvOqlycHO0dFJ9BX2uIIkIBU1zsdbd/eNGQ6v7FcUArtFAAEE6i7QkS9+r26+OzqoO0QV9ScBKVF9OJl062y/MUie0ttRIjy7QgABBBYIaK9IYsyL8943B0xeXQDl+CkSEMegs4rTxCNNz57IKbM/y4TS7Vnb8BgCCCCAQNUC9lSO0S/ktN7fSESKbwsSkAKNSTwKxKVoBBBAoDABEpHCaKcKJgGZwnB59+Od3UcMtbgUpSwEEECgbAF7ao35hTkixbiTgDh21VNpre3/KsW2HRdNcQgggAAClQgM1xT5hWXg3eKTgDjyHE4wTb88lQsqyVwPfhBAAAEEYhOQi+X91u99+5z5IW5algTEgaNel0VmUb/kzBYHmBSBAAIIeCwwXkfkMb0hmzdSY/Mi6l2CJB/PROANyUe93wfUHgEE6iEwPta/+Xj7Ox1q52cDAXpA1sQbneHy5Q3XaVkTkJchgAACwQvYbi81P7Gi6noNSQKyhttoomlPkw/W9FjDj5cggAAC8QgMT9n9iSGZ1VuUIZgVzfT0WjnL5Q+SjxXh2BwBBBCIUmD4RfSNfjZEWb0CK0UCsgKujvnpZNMVXsKmCCCAAAI1ENDPhs+3dvl8WKGtGYLJiaVvLJl89Cjn5myGAAIIIFBDAUlEDq5/OHpcw6qvXGUSkBxkJB85kNgEAQQQQGAoQBKS741AArLEieRjCRBPI4AAAghcESAJuUJy5QESkCskXx8g+fhqwT0EEEAAgdUESEIWezEJdY6PTjhlzsccHB5GAAEEEFgqoJ8h+kV26YY13YAEZEbD6+lUXNNlBgwPIYAAAgisJDBMQm7f5RphM9QYgrmEotd1kYdkkTF+EEAAAQQQcCNgrfnp5oe/D92UFkcpJCBT7Xi8u9tKe5ZFxqZMuIsAAggg4ELAnhqT3r/+7q+ui9JiKIMhmKlWlOTjd1Y4nQLhLgIIIICAIwGzbW3vpV5HzFGBwRdDAjJuwtGVDc1e8C1KBRBAAAEEPBUwe1vNM66iO24dhmAEgnkfnv6tEhYCCCAQoQDzQUaNWvsERLvDJCP9Q2YqtyJ8n1MlBBBAAAHvBOxpr/ftzs5J99S70EoMqPZDMM30y1OSjxLfcewKAQQQqL2A2U7TL7VfH6TWPSAMvdT+KAAAAgggUKXA/RvvjzpVBlDlvmveA2KZDFTlu499I4AAAjUWkKXaa90LUtsERFc7lVNuOeulxn/8VB0BBBCoUkCH/6Un/lmVMVS571oOwejEUxl/O2bNjyrfeuwbAQQQQCBJ6jshtZY9IGl69oTkgz98BBBAAIHqBcy2ngxRfRzlR1C7HhB6P8p/k7FHBBBAAIHFAr002dk5OjpZvFVcz9auB4Tej7jewNQGAQQQiEFg6zypXS9IrXpA6P2I4c+UOiCAAAIxCtRvLkitekC20n8fMfcjxj9c6oQAAgiELqCLk+n8xPr81CoBSaz9uT5NS00RQAABBMISqNdnVG0SkI+37u6z5HpYf4pEiwACCNRLwGyP1qiqR61rk4AYM3hYjyallggggAACoQrI6qi1+ayqxSTU493dVtpLjkN9QxI3AggggEB9BOpySm4tekC2ema/Pm9daooAAgggELJAs1ePuSC1SEBswvBLyH+MxI4AAgjUSaBh6/GlOfoE5POd7+WCc1x0rk5/vNQVAQQQCFlAT5gYfXaFXIvlsUefgFjbZ/hl+fuALRBAAAEEPBIY2F70k1GjT0DkSoMPPHpPEQoCCCCAAAJLBeowDBN1AqJnvzD8svR9zgYIIIAAAp4J1GEYJuoEpNlP2p69pwgHAQQQQACBfAJ20M63YZhbRZ2AGMvwS5hvS6JGAAEEELCRTyGIOgGRt2+btzACCCCAAAKBCrQDjTtX2NEmIOPTb7dzKbARAggggAACHgp8ur3b9jAsJyFFm4AkkY+dOWl9CkEAAQQQ8F2g7XuA68YXbQIiq5/eWxeF1yGAAAIIIOCJQLSfZdEmIMay+qknfzyEgQACCCCwtoCV1bzj/IkyATlu7W3rOdRxNhm1QgABBBCoj4DZHq1pFV+No0xA0vQs2owxvrcgNUIAAQQQWCTQPI+zRz/KBEQasr2oMXkOAQQQQACBUASMiXMYJtIExP4QyhuLOBFAAAEEEFgiEOVE1EgTEMP6H0vezTyNAAIIIBCGgLFxzmmMNAFhCCaMPyuiRAABBBBYJhDrSRXRJSCxzhZe9gbleQQQQACBeAVGq3vHVb/oEpC0F2dXVVxvO2qDAAIIILCKgLX96KYWRJeAxNpVtcoblW0RQAABBKITaMdWo+gSkFgn68T2xqM+CCCAAAL1FogxAfmfejcptUcAAQQQiFAgulNxo0tAGIKJ8M+OKiGAAAIIRCcQXQISXQtRIQQQQACB2gvEOL0gwgQkziVra//XBwACCCBQY4EYe/cjTEBYBbXGf6NUHQEEEEAgEIEIE5BA5AkTAQQQQACBFQRiW2gzqgQktsZZ4X3JpggggAACkQvEttBmVAlIbI0T+d8S1UMAAQQQqLFAVAlIjduRqiOAAAIIIBCUAAlIUM1FsAgggAACCMQhQAISRztSCwQQQACByAWsjessTxKQyN+wVA8BBBBAIA4BY+Ja54oEJI73JbVAAAEEEEAgKIGoEpAYV4oL6t1EsAgggAACCOQUiCoBiXGt/JztyGYIIIAAAggEJZAGFe2SYKUH5ESSkM7FzXTMLK6JOxfrx28IIIAAAvEJ2FP57OpO10s/46Z/D/2+Cb0Cq8T/+c73e9b2t01i9mxit+W195LhrZEkhR8EEEAAAQTKEZAvyyfjhOKtfCadymdS15jm6fV3f11IOsqJppq91CoBWUT86fZue5SYDCQpSdr0mizS4jkEEEAAgfwC2puhvfPmT7298f5I7vNDAjLnPaC9JYkdtG0yeChvGnpI5jjxMAIIIIDALAErPRnmtfRqHNapV2OWxLzHSEDmyUw9rhe52+qZ/cTanznTZgqGuwgggAACE4HxsMqrXpoc7BwdnUye4M5MARKQmSzzHxwO1djkoSQij+ZvxTMIIIAAAvURsIfS2/GCoZXVWpwEZDWvydbDXpHz5CmJyISEOwgggECtBKTH4+B8K3lOb8d6zU4Csp7b5FWaiKQ9+6tkv/uTB7mDAAIIIBCzQEeGWR6TeGzWxCQgm/lNXj0emnnJHJEJCXcQQACBqAR0jscgMb/c/PC3DLnws6lAVCuhboqxyet17O+8f+1HOZf7t03K4bUIIIAAAv4J6LFdj/EkH+7ahh4Qd5aTkrQ3RBY4+12GZbYnD3IHAQQQQCBAAXtqbeMxiYf7pqMHxL1por0hvdT8KElIt4DiKRIBBBBAoBQBXZ00vU/yUQw2PSDFuA5LPW7tbafpmfSE6Mqq/CCAAAIIhCNgu73et/d3Trqn4cQcVqQkICW01+dbuzo59VEJu2IXCCCAAAIbC5B8bEyYowASkBxILjYhCXGhSBkIIIBA0QIkH0ULZ+WTgGQSJdx+uv3dHzIxda+EXbELBBBAAIGVBUg+Vibb4AVMQt0Ab9WX6ngiE1NXVWN7BBBAoAwBe8qcjzKcv+4juB6Q0cqjSctas22MnfQmyAIx/5MtAja+INB/vlZTL4OcDM9OmXqskrt6lV1re284RbcSfnaKAAIIzBSQq9b+6MNVa0fLOAxDbGeBLvp8k89COVNHkqc0OQltZVZvE5DxGSSaYEgj2B/ktuVi+GKcnJxIeW/l/04VFw/6eGf3kcTxUvbPDwIIIIBAxQJGVje9/v7v38oOY5xstPUzzlizl32J3iyO4fIPJ/J5+aeU0+n1rnV9PZPHqwREG0NWm3sgQUmDlDlXwh5aY173z68dltVQMh9EFyrb3+yNxqsRQAABBDYU0C+i9zcsI9fL9Yt1c+ts31j7QF7Qls+A7Vwv3Hgj27WSjEii9bqKL93zwq88AdEhiWTQ/9kaKx/GZTXGPA57KlnoYRlXNxz18Hw5rr7O8yx4HAEEEIhdQIcuzI9FD118vXq6P59z0tvyqupkpJIEJMsCG4Ph5exbnr7FC7/a4efbd59Ij8+vntafsBBAAIHYBZ7Lh/Czoir5NfHwcx0onZKQGPPivPfNQVm9/9PWpSYg43kdT2S86+dQvvnrBYj6vW+fF9U4sj7IsZtxv+lm5T4CCCCAwCIB/fDVi8sVcWwffslOvzyVIQ/5vAvhx57KZ/ILmS/yWxEe8wRKS0BkfsezkBKPabDxxNXHRXRXMSF1Wpr7CCCAQDkC8sXv8c13Rweu9zaeVvB7mF8sR4lIkb1C096FJyA6sVTP+AizMaapJD8saKY0vSAXnfkNAQQQKFJAv1Re/3C043ofsXyhLPJL97R5YQuRaRfUx9vf6fyGNzEkH4qm8zV0SfVpQBf3B43kuYtyKAMBBBBAYLlAEcdc/WzQL9vL9+7/FuPP7Dd6tqZ+lhcVcSE9IOPFtqQhyjyVtiiiq+XKm+xAsufHV59Z/xFp6P8NZV7M+rXklQgggEDVAsMVT3dcznXQ5EM+tB9VXbMi9q+9IUmj+VMRi7Q57wHRLqjxSp97RWD4UKa+0ca9O87CsUly4KwwCkIAAQQQmCmgSy04TT70bMZIkw8F1N4Qa/t/6Gf7TNANHnSagOhE01EXVNXreWwgkvOlOrv54627+zk3X7pZPzUvlm7EBggggAACmwk0ms6OtfoZUJelFPSz3fUUBGdDMDF3Qc1/t7tdxIar5c6X5hkEEEBgUwEdTnA1+XS0rET9FpMUQ2dTEJz0gNQz+dA/BbOd9txNOjJJ49Wmf2C8HgEEEEBgtsDA2MPZz6z+aJp+0XmOhU3QXD2icl6hw02uekI2TkDqm3xMGrvtaijmPHX3xzGJjjsIIIAAAkOBhkmdfMnT5SUk+XA2BB9a87hKQjZKQHTOR8yTb/K+KRqOllPX6xFoF2He/bIdAggggEBeAXvq6kwOnQ+Rd6+xbqef/ZuejLF2AjKeEfs0VtxV6iUN0XI1Q9hlF+EqdWBbBBBAIGYBPfvFRf2GE0/lmO+irNDLGJ6MscHZMWslILrOh1xOmIuoTb17xEOub+Pgx5g/HZRCEQgggAACUwKy+NjbqV/XvmuMo2P92hH49ULtDRouP79GWCsnIDrzV9b5qOXkm8W+Zm/dRpgut99MOtO/cx8BBBBAYHOBRtLsblqKXt1WymhvWk50rx/011oxdeUEpClX+JPJN3vRAbqo0KC/cS+IzgORpV9OXYRDGQgggAACIwEX8z+aPXo/Zr2fdBrC6KygWc/Of2ylBGR4YblgLi88v9IFPtN2U7bZOFN3EwelIIAAAlEIdFzUomHre+bLcj+zv+oZoSslIMz8XdwEmgW6GIaRvTgZq1wcLc8igAAC9RCQ1Uo3/lKnwy96jK+H2Hq11DNCV7l4Xe4EZHzKLfjL2sUO2ss2Wfa8vMlPlm3D8wgggAAC+QTkbI3/5tty/lZbPXo/5uuMnhkNxZw9WbZd9nyuBGQ08Yaxrwxt0a1NBvcWPZ/nOdYCyaPENggggEBugU7uLedtaO0P857i8QsCT8eTdS88OOuXXAnI1nmiE0+3ZxXAY1cE2lceWfGBXkoPyIpkbI4AAggUKmCN3St0BxEVPsoZllfILNtEMxm53snxsu14/qtAr3ft/296uWcZ8rJfS+QeAggggMC6AjfeHy39rFtWNsfkZUIXn5cv0jujszovPj7929IekLyZzHShdb+fpmcOMmVOxa37+4j6I4CAHwJ6BqgfkYQTRZ7cYWECMp71+yicKvsRqZuZ0pyK60drEgUCCIQswJy6alpPPgcfLZsLsjABkaGXR9WEHvZe5Q3fCrsGRI8AAgjEISAfhCcOatJ2UEbtiljWC7IwAZEVOTde2bN24lQYAQQQQAABBBKZuLu/aF2QuQnI6OqunPmy3nto89O16DZcT55XIYAAAgj4ImC2m1tn+/OimZuAyNVdH8x7EY8vE9g8cZNuw/8s2wvPI4AAAgiUIbD5l8oyovRxH4uuFD8zARlNHGHVNx8bk5gQQAABBPILuOlN3vxLZf6IY9vS7M2bjDozAWHJ2djeANQHAQQQqKcAvcnVt/u8nGJmAiLLiT+sPmQiQAABBBBAAIHQBeblFFcSkNGMVeNgIa3QyYgfAQQQQAABBDYXmD0McyUBWTRjdfMgKAEBBBBAAAEE6iYwaxjmSgLSGCT36gZDfRFAAAEEEECgOIFZV4q/koDowiHFhUDJCCCAAAIIIFA/gatn1l5IQD7f+V7mfnC6Uf3eGNQYAQQQQACBYgUuX9TvQgKS2EG72N1T+goCnRW2ZVMEEEAAgRkCJjGnMx7moWoE2tO7vZSAsNrbNA73EUAAAQTCFrCJ7YZdg5iiv5hjXExAkqQdU1WpCwIIIIAAAgh4I9CejmSSgOj6H7JiXGv6Se5XJ3Dj/VGnur2zZwQQQCAOgV6anMRRkxhqYbanl2WfJCBpeiYTUPlBAAEEEEAgHoGdo6OTeGoTfk2a518XOp0kIDJRhwTEv7bt+BcSESGAAAJhCLi5EF0YdQ0lSmPsJNeYJCCJvTg5JJTKxB2nPY27ftQOAQQQKE5AphWcFFc6Ja8n8DXXmCQgzP9Yj7LYV5k/iy2f0hFAAIF4BTgDxsu2bWVRTRKQJPnaLZI9yW21AtaabrURsHcEEEAgYAHDlzj/Wu/rdI+pBIQVUH1rqP4W56/71ibEgwAC4Qg0kiZf4jxsruxMmGECcnl5VA/jrWVIo9nbzAOpZeNTaQQQ2Fjg+ru/SEA2VnRfQNobLfkx1QPifieU6ESg46QUCkEAAQTqJdCpV3XDqW025zRLQNrhhF6vSE3SeFuvGlNbBBBAwIkAx04njO4LkdOjW1pqloC43wMluhEwjY6bgigFAQQQqI+AMc3D+tQ2rJrK2Un/TyMeJiCSjfxPWOHXJ1odw2Qxnfq0NzVFAAEXAvaU+R8uHIspI1v4dJiAZOMxxeyKUjcVGBhLJr8pIq9HAIHaCBhrOGYG0NoMwYTQSCZ9FUCYhIgAAgh4ITBIzGsvAiGIOQJ2W5/IhmBac7biYQ8EGIbxoBEIAQEEghDQIeubH/6mB8Tr1hotRsYQjNeNNBWcMS+mfuMuAggggMAMAZlSQI/xDBcfH2IIxsdWmRHTee+bgxkP8xACCCCAwJRAL00Opn7lrscCJCAeN850aDsn3VPpWjyYfoz7CCCAAAJfBfQYOVpB+utj3PNT4Li1t00C4mfbzIzqfCt5PvMJHkQAAQQQkFmNTYaqA3kfpOnZXuPzne/3Aom39mFqZk8vSO3fBgAggMAMAT02svbHDBiPH2pY2x+eDuNxjIQ2JTDqBeECdVMk3EUAAQQSeojDexMwBBNYm43GNzkjJrBmI1wEEChQQJb2/o25HwUCF1Q0CUhBsEUWe+P90TPpbjwpch+UjQACCIQgoMfCfu9b5seF0FiXYiQBuQQSyq9yrvvjUGIlTgQQQKAoAT0W6lmCRZVPucUJkIAUZ1toydIL0pEdkPUXqkzhCCDgs4AOvYyPhT6HSWxzBEhA5sCE8LAOxUicnRBiJUYEEEDArYDt3nz/zy9uy6S0MgVIQMrULmBfvd61n5LEdgsomiIRQAABTwXsaa/37X1PgyOsnAIkIDmhfN1suEKqSWU+CKfm+tpGxIUAAi4F7Kkx6X3mfbg0raYsEpBq3J3udXi1XPmDJAlxykphCCDgncAo+WDBMe8aZq2ASEDWYvPvRSQh/rUJESGAgEsBkg+Xmj6URQLiQys4imEqCWFOiCNTikEAAR8ESD58aAXXMZCAuBatuDxNQsaTszoVh8LuEUAAAQcCVo9pOwy7OKD0rAgSEM8axEU4OjlLTtHVGeLPXZRHGQgggEAVAqN1Pv75kQmnVegXv08SkOKNK9vDeJ2Q+yzbXlkTsGMEEFhDYHzMus86H2vgBfQSEpCAGmudUHWVwPP+tR/ltfSGrAPIaxBAoGyB53rM0mNX2Ttmf+UKkICU613J3sZDMs96abIj3ywOKgmCnSKAAAILBPTYpMco7bllyGUBVERPkYBE1JjLqqKXq77+4egxicgyKZ5HAIGyBDTxMKb5ox6b9BhV1n7ZT/UCJCDVt0HpEUwnIrLz5+Px1tLjYIcIIFBXAXuqE0z1y5AmHpzhUs/3QVrPalNrFRh/23gmd599vHV3v5HYB9bY/SQx2/o8PwgggIA7AVnLw5rDQWJe3/xwdOiuXEoKVYAEJNSWcxz3zQ9/6wFB/3+syUhiBvdMkrQlGdlzvCuKQwCB2gjYrtUrdtvGW5KO2jR67oqSgOSmqs+GU8lIctza2242/20bYzURuSfDNS1rklZ9NKgpAgjkE9ALYpqubPvWWtPt97/pMJk0n1xdtyIBqWvL56z3+AByKJvr/5OfT7d323KQ2R4nJvr4vcmTw56Tqd+4iwACMQh0pirxVu9roiHHAF34cPq5qc24i8B8ARKQ+TY8s0Bg6oBzITFZ8BKeQgABBBBAYCLAWTATCu4ggAACCCCAQFkCJCBlSbMfBBBAAAEEEJgIkIBMKLiDAAIIIIAAAmUJkICUJc1+EEAAAQQQQGAiQAIyoeAOAggggAACCJQlQAJSljT7QQABBBBAAIGJAAnIhII7CCCAAAIIIFCWAAlIWdLsBwEEEEAAAQQmAiQgEwruIIAAAggggEBZAiQgZUmzHwQQQAABBBCYCJCATCi4gwACCCCAAAJlCZCAlCXNfhBAAAEEEEBgIkACMqHgDgIIIIAAAgiUJUACUpY0+0EAAQQQQACBiQAJyISCOwgggAACCCBQlkBa1o7YTzgCn27vtsOJlkgRQCAEgRvvjzohxEmM5QmQgJRn7dWeNMkwidlLrP3BmqRlbNLSW6+CJBgEEIhGQI4547rY0yQxXTnmnMgx5z/yYKfXu9bdOenK4/zUSYAEpCat/fnO93sD23tokqQtf/x7Wm0r/yXywPD++Hb0G/8igAACRQmYbSm5LclH9vM0Tc+ST7e/68oRqdMw6avr7/7qZk9yG68ACUi8bZsc7+62mj37c8OafWv7LenxiLi2VA0BBMIWMHtyhNqTY9WTz7d2TwbGHvZT82Ln6Ogk7HoR/TwBJqHOkwn4cU085A/4ZdpLjiXpeCLfNFoBV4fQEUCgZgJ6zNJjlx7DpGfkd+alxfkGIAGJqF2nEw/5A34UUdWoCgII1FbA7EvV32giose42jJEWHESkEga9fPtu/Jtwf5B4hFJg1INBBC4JGD29Rinx7pLT/BroALMAQm04bKwj1t722n65aVMKJVvCczxyFy4RQCBGAXMthzrfpUhmQdy5sxPnDkTdhvTAxJw+42TjzeSeGgXJT8IIIBAXQTa8sXrjZ7dV5cKx1hPEpBAW1X/8LaaZ39kp9QGWg3CRgABBNYUMHLGTI8kZE09H15GAuJDK6wYg/Z8yB/eS85uWRGOzRFAIDIBGZKRJITJqWE2KwlIgO2mXY/0fATYcISMAAIFCJhtmZz6u34xK6BwiixQgASkQNwiiv54+7tfST6KkKVMBBAIV8DokLQcG/kJSYAEJKDWGl+/5UlAIRMqAgggUIqALkHw8dZdJuSXou1mJyQgbhxLKUUu3vSylB2xEwQQQCBAAWMGLxmKCafhSEACaSvp/XjGpNNAGoswEUCgIgGZD5Ke0Utckf6quyUBWVWsgu1HGb39uYJds0sEEEAgMAH7M70gYTQZCUgA7bSV/vtIJp4ywzuAtiJEBBCoWoBekKpbIO/+SUDySlW5naX3o0p+9o0AAmEJyHy5h2FFXM9oSUA8b3dd8ZS5H543EuEhgIBXAnrM5IwYr5pkZjAkIDNZ/HlwYHtk8v40B5EggEAgAo3EPggk1NqGSQLiedM3LBea87yJCA8BBDwUsEavEM6PzwIkIB63DsMvHjcOoSGAgOcCZpur5frdRCQgHrfPIOnveRweoSGAAAJ+C9hB2+8A6x0dCYjH7d8YJPc8Do/QEEAAAa8FbDLgGOpxC5GAeNw4nP3iceMQGgIIeC9grKEX2eNWIgHxuHEktLbf4REdAggg4K8AX+L8bRuNjATE0/Y53t1teRoaYSGAAALBCDAR1d+mIgHxtG3SXtLyNDTCQgABBIIRsLbPZSw8bS0SEE8bhrAQQAABBDYXMAnzQDZXLKYEEpBiXF2U2nZRCGUggAACdRawiaUHxNM3AAmIpw1DWAgggAACCMQsQAISc+tSNwQQQAABBDwVIAHxtGEICwEEEEAAgZgFSEBibl3qhgACCCCAgKcCJCCeNgxhIYAAAgggELMACUjMrUvdEEAAAQQQ8FSABMTThiEsBBBAAAEEYhYgAYm5dakbAggggAACngqQgHjaMNaarqehERYCCCCAAAIbC5CAbExYTAHG2NNiSqZUBBBAoFYCnVrVNqDKkoB42ljGNElAPG0bwkIAAQQQ2FyABGRzw0JKuP7uL4ZgCpGlUAQQqJNAr3eNY6mnDU4C4mnDaFjGJiceh0doCCCAgOcC9nTnpEtvsqetRALiacNoWNZYMneP24fQEEDAdwEm8/vcQiQgPrdOYv70OjyCQwABBPwWeOt3ePWOjgTE7/bv+B0e0SGAAAL+CrCcgb9to5GRgHjcPjfeH3VkIIbxS4/biNAQQMBfgX7/m46/0REZCYj/7wH+gPxvIyJEAAHvBOwhE1C9a5QLAZGAXODw7xdrzGv/oiIiBBBAwG8Bjp1+t49GRwLieRvdfHd0wDCM541EeAgg4J1A//zaoXdBEdAFARKQCxx+/mKT5MDPyIgKAQQQ8E9A1lA6YPjFv3a5HBEJyGURD3/vp+aFh2EREgIIIOClwPlW8tzLwAjqggAJyAUOP3/ZOTo60Yzez+iICgEEEPBHYNj7IcdMfyIiknkCJCDzZDx7fJTRc0quZ81COAgg4JkAvR+eNciCcEhAFuD49JT2gsjVYRiK8alRiAUBBHwTeD46VvoWFvHMEiABmaXi6WOyMNkzCa3jaXiEhQACCFQoYLvjY2SFMbDrVQRIQFbR8mDbXpo85rRcDxqCEBBAwCMBe2pMKsdGfkISIAEJqbUk1uGEVJPeDyxswkUAAQQKE7C28fj6u7+4enhhwsUUTAJSjGuhpeofmjXaE8IPAgggUG8BPRbe/PA3i44F+DZo9HrXyBoDbDhdIXWUhHBmTIDNR8gIIOBAYJh8DFeLdlAYRZQu0GC1uNLNne1QkxAZ97wv572fOCuUghBAAAHvBXTOR/PH0aUqvA+WAOcIMAQzByaUh3U45rx/7UeZmEoXZCiNRpwIILCJQKfX+3aHOR+bEFb/Wh19IQGpvh02jkB7sW68/+cna81P9IZszEkBCCDgpYA91SEXOdX2Pj33XjbQSkFpG5KArETm98Y6EWvUG6LXQWBuiN+tRXQIIJBPYHgse669Hgy55BMLZSsSkFBaKmeco96Qo2f6xzqepMok45x2bIYAAv4IaG+uScwveizTBcbo9fCnbVxFkroqiHL8Ehj/sR5IVAef73y/N7C9hyZJ2rKc+55fkRINAgggkAnYrpXVnhsmfXX9Pet6ZCqx3o4TECvfkvlgirWRx5O1hj0hx6297Wbz37YxVhORezJUI7dmO9a6Uy8EEPBVQIdWjCQc8vljG2/7W7a7c/TPia/REpd7gXECYuSNwE8dBMY9I4dSV/1/8vPp9m5bf5Fhm5Z0fbb0Pj8IIICAKwE5tpxkk+RlSKXjqlzKCU8gex8wBBNe2xUSMQeEQlgpFAEEEEDgkoAmo/oQk1AvwfArAggggAACCBQvQAJSvDF7QAABBBBAAIFLAlkC8vbS4/yKAAIIIIAAAggUIDBapypLQArYAUUigAACCCCAAAKXBcyf+ggJyGUXfkcAAQQQQACBwgWGCUg2I7XwvbEDBBBAAAEEEEBABIYJSHZOLiIIIIAAAggggECRAnLh1K6WzxBMkcqUjQACCCCAAAIXBGQl7uHip8MEpJeOFgW5sAW/IIAAAggggAACBQkME5Cdo6OTgsqnWAQQQAABBBBAYCLQ611jCGaiwR0EEEAAAQQQKEVgfE2y6TkgekVcfhBAAAEEEEAAgaIERvM/tPSpSahcEbcobspFAAEEEEAAARUYnQGj96YSkK9ZiT7BDwIIIIAAAgggUJTAVAIyWhq1qB1RLgIIIIAAAgjUW8AmX6d7pBmFScypPJH9ym1NBI53d1tpL2nJargtWZCuNaq2/UG6ybZrQkA1EUCgcAHtYR99ydWVt3XxS13+gTMwC4f3bgeSa/w3C2qSgExnJdmT3MYn8PHW3X1ZBGZPanYvSeS2lwwTDTkgTP2YqfvcRQABBDYVGB5T9rWU7FgjX3yST7d39aHO8PPHNt72+990sjMk9Al+4hPIVkHVmk0SEGOap9b246ttzWt03Nrbbm6d7RtrH8ifvhwApjMNEo2avz2oPgI+CLTlW3FbMpMnaXomScl3h9aY1/3za4ckIz40j9sYslVQtdTJHJDr7/7qut0NpVUpoEMrn2/tvkzTL8fyjePlKPmoMiL2jQACCOQRMPKFKZFj19n/6jHs853v9/K8im3CEMgWIdNoJwnIKHTOhAmjCedHOUk8esmxjLU+ksRje/7WPIMAAgj4K6DHMOmZ/0OGat6QiPjbTqtENt2rdSkB+Xp+7ioFsm31AjrU8vH2d7/KuOo48ag+JiJAAAEEHAm0NRHRY5we6xyVSTHlC3Smd3khAZFur5PpJ7kfhoB+M9hqnv0h46hPwoiYKBFAAIHVBfQYp8c6ekNWt/PjFRdHWS4kINLd9R8/giSKvAIf7+wOuyil7Vp5X8N2CCCAQKgCeqwb9obIsS/UOtQ37ovrjV1IQASlU1+Y8Gr++fbdJ6MJpuHFTsQIIIDAJgJ67NNJqpuUwWvLFZDk8WR6jxcSEF0YZvpJ7vsroMmHnDv/q78REhkCCCBQrIB8oD0iCSnW2GXpl6d5XEhAWJXOJXVxZQ2HXUg+igOmZAQQCEZAkxA9JgYTcI0DvfH+qDNd/QsJyPiJCxtMb8z96gV08hXDLtW3AxEggIA/AnpMlFN12/5ERCRXBb5eAyZ77koCcrmLJNuQ2+oFhqefDfq/Vx8JESCAAAK+CdjfOUXXtza5EM/Jhd/klysJSGIuzlK9/AJ+r06gmX55qjPAq4uAPSOAAAK+CphtOUWXeXG+Ns/4YoTT4V1JQLgo3TSPP/eHQy+s8+FPgxAJAgh4J6DzQRiK8a5ZsoA62Z3s9koCcnmSSLYht9UKyHnvZPbVNgF7RwCBMASehhFmvaKcvgZMVvMrCcjoiauTRbIXcFu+wDijb5e/Z/aIAAIIBCfQphfErzbTuaXT14DJopuZgBjLNWEyIB9upfEe+hAHMSCAAAJhCNifw4izHlFaM7tTY2YCMmgkb+vB4n8tdVa3jmv6HykRIoAAAr4ImH29Mrgv0dQ9DpM0ZuYUMxOQfpMl2X15wzS3zvZ9iYU4EEAAgVAEtnqGY6cvjWUanVmhzExARiuiXrxq3awX81jxAsbaB8XvhT0ggAACcQnYZMDQtSdNev3dX91ZocxMQMYbdma9gMfKFiCLL1uc/SGAQAwCZo+Fybxox868KOYmIPPGbOYVxOPuBZjJ7d6UEhFAoD4Czea/7frU1s+amsS8nhfZ3ATkPLWH817E46UJtEvbEztCAAEEYhMwg3uxVSm4+syZ/6H1mJuA6DwQrgtTeVPzx1N5ExAAAgiEKiDfvvdCjT2OuO3pvPkfWr+5Cci48p3xLTcVCEgC2Kpgt+wSAQQQiEWgHUtFQqyHrCm2cCRlYQIyWDB2EyJGaDFz4bnQWox4EUDANwEmolbXIsvWFFuYgNz88PfC7KW6asW/Zyagxt/G1BABBIoXSNMzhmGKZ565h/75tYU5xMIEZFQik1FnyvIgAggggID3Ataabe+DjDPAzqzrv0xXdWkCYs38U2imC+K+WwGGX9x6UhoCCNRTwBhLD0gFTb/o9NssnKUJyLIulKwgbt0KMAHVrSelIYAAAgiUJ5BnKY+lCcioC4VhmPKajT0hgAACCCAQsoDtji7psrgOSxMQfTnDMIsReRYBBBBAAAEERgKSM7zIY5ErAbn57uhA0pDTPAWyDQIIIIAAAgjUVyDv1I1cCYgyLltQpL7U1BwBBBBAAAEEVEDmLx4sO/slk8qdgCSNZq4ulaxgbhFAAAEEEECgXgJyBuervDXOnYCM1nO33bwFsx0CCCCAAAII1EdArx934/1RJ2+NcycgWmDeiSV5d852CCCAAAII+C5gE75852qjnJNPs7JWSkCYjJqxLb518WaVRVyY9LuYmWcRQACBUgTkePzfUnYU9E7s6Xnvm4NVqrBSAjIqON/pNasEEdu2Lt6sLpKY2FypDwIIILCqgMxJOFn1NWy/joB5kXfyaVb6yglIr3ftN07Jzfhm39J7MduFRxFAAIGyBXRewqb7lOvJMP9xCWIvTQ6WbHLl6ZUTkFGGQy/IFcmpB1z0Xkiixxt+ypS7CCCAwDoCxjQ3Hs6W68lsXMY6sYfymuGpt0dHJ6vGu3ICojugF2Qxs4s3/KpdWYsj4lkEEECgngKjMzg3qztfCBf7nW8lzxdvMfvZtRIQekFmY2aPunjDj8vqZGVyiwACCCCwqoCbs1dGn3n0gszRf57nui+zXrtWAqIFaS+Ii7G1WUEF/ljHVfwuhnJcxUI5CCCAQGgCsoK3w6Fsl2WFJjkvXns6GhGZ9/zix9dOQDQjHDTW63ZZHFLYzzpNGoz5M2wNokcAAQQqFHB7DH1bYU283LVJGs83mS6wdgKiGqN1QZKOlzJVBWUbzt6k/Sa2VTUj+0UAgQgETKPjsBYuy3IYVlVF2e7193//tsneN0pAdMcy4fKXTQKI7bX9/jcdV3Uajau5GcN0FRPlIIAAAiEI6BQBh/PxktES48wDydremPRxdn/d240TkHEDP183gLheZw836Y6aZWETekFmufAYAgggsEhgYOzhoufXeY6rwo/UZKrBby6Su40TEA1HMsNnsjiZw8k+o0qG9q9cK+e165j7KWuuuDalPAQQiF+gYdJXrms5SNwf413HWHx5ttvvfeuk08FJAqIV7qXmp3qvkGpP++fXnGfc49ObOsW/qdgDAgggEIeA6+GXTOXmh78P6372pw69uOrpd5aA6Ael9ADUdj6IDJUcuGqU7M2e3cq1DJxn8lnZ3CKAAAKxCRR5hmadj8dS98cuhl6y95vJ7ri6/Xj7u1/lWihPXJUXSjmyDv7Ououx5Knj51u7x9L4rTzbsg0CCCBQV4Fh78eHo52i6n/c2ttO0y/HcgrGdlH78LFccT24/uHoscvYnPWAZEHdfP+P9IK4n/yTle/p7dorweWtT5EZfd4Y2A4BBBDwXaDoY+Wop7tuc/PklFvHyYe+j5wnIFpor/etZEl1mZS62Upw6pXnhzVX8iixDQII1FvAdsfHykIZ6rUSuO3KZ/r9IkALSUA0QxwFHH8SYm3D2YScZQ3MmivLhHgeAQTqLOBibYo8fvoZp/Mh8mwb9jaj5KOo+Y2FJCAKXockRMfEdFZ0WW8wnfwj82tqO9G3LGf2gwACQQo8dzlBcpmALkym62Es2y7c54tNPtTFFI0znrDzRna1V/S+yi2/+MaZVx+ZkPpSsu9H857ncQQQQKBeAvbwxvt/ZCmI8n8+3f7uDz7f1nMvrAckC2eqJ6S0noJs30Xd6ixrHWIqqltqWdyjyUDxD28tc+B5BBBAQOcbjuYdVmMR4XSDTlmfb4X3gEy/JWI4RVeTj6TR/KnMrr5pw+x+vD1LWQ25RQABBJYJVNcTPR1ZLMdjHVIanck6Xbvi7hfeAzIdulbM2pBXTLXd8/61H6tOPtQ061nSeSjTxtxHAAEE6iFgD8v6pr7MMzseh3v2pz3Vz+Yykw81LbUHJGvEcbb4Una/nz3m+61+0Evy8UtVwy6LfD7d3n0mzz9dtA3PIYAAAhEJPB9dg8y/GgXY09+RhTQfF7mQ5rxWqiQByYKRD862fLDrhMpW9ph/t5oZNh6XebbLOgaf73y/Z21Pk7rIJvuuo8FrEEAgRgEdAtfTX/UMFJ/r9/HW3f1GYn/1+bNNLeXier9U+dlWaQKSvYE+3tl91BgkT31rLB0P06v++djrkdldvv18++4TmwykN6ReywRfduB3BBCIScCeyjHtha+9HrOkRz39Z09kWOZnv47H/lh6kYBkjedHIiI9HnJhuX5qXlTRJZVZbHKbvfElw33oW1K3Sb14LQII1E1g9GGpK4+G9EVwupWy43HViciwx6ORPNertvti6VUCkjXaeGhGPjytzBEp65u87crVfF/41DiZxya32hVozOChOIolPwgggEAIAvZQjsevy1hWvSwNTUSaW2f7xtoH5R2P7amxRiyTVz4OW3mZgEy/ITQZkaGQBxJoWxptb/q5Te5rNiiv78iFi97GlnTMchm++Zv/thMzuOfactb+eAwBBBDIL2C78kHZlTkJr/v9bzq+fEPPH/9qW2bJiEw9uCevbLvtqZYv0/LZltjG2yrnd+QR8T4BuVyJYe+IJCKSlGzLc9p48mMlMZnVUzLsvusOt5DFamQZ8//KfVlk5Vo39je41nnZzyxLScxabv8YlkXB8wggUAcB/dInx5aTcV3fyvFYhrt1HQ+Ox+Nhmj0xyfnZNlTs6L9q2Ega/9FbH3s5hpHO+ef/AOZ2mWnD7KrgAAAAAElFTkSuQmCC;" vertex="1" parent="1">
          <mxGeometry x="122.63" y="505" width="214.75" height="140" as="geometry"/>
        </mxCell>
        <mxCell id="qS-tOZRlUFg_2kntw544-17" value="" style="startArrow=oval;startFill=0;startSize=7;endArrow=block;endFill=0;endSize=10;dashed=1;html=1;fontSize=20;entryX=0.53;entryY=1.007;entryDx=0;entryDy=0;entryPerimeter=0;" edge="1" parent="1" target="PRXkoPq4WOW4vHOm3imV-2">
          <mxGeometry width="100" relative="1" as="geometry">
            <mxPoint x="620" y="549" as="sourcePoint"/>
            <mxPoint x="720" y="549" as="targetPoint"/>
          </mxGeometry>
        </mxCell>
        <mxCell id="qS-tOZRlUFg_2kntw544-18" value="ALL OR NOTHING" style="rounded=1;whiteSpace=wrap;html=1;fillColor=#f5f5f5;strokeColor=#666666;fontColor=#333333;" vertex="1" parent="1">
          <mxGeometry x="530" y="350" width="160" height="60" as="geometry"/>
        </mxCell>
        <mxCell id="qS-tOZRlUFg_2kntw544-20" value="" style="ellipse;whiteSpace=wrap;html=1;aspect=fixed;labelBackgroundColor=none;gradientColor=none;fontSize=20;" vertex="1" parent="1">
          <mxGeometry x="215" y="690" width="30" height="30" as="geometry"/>
        </mxCell>
        <mxCell id="qS-tOZRlUFg_2kntw544-22" value="" style="endArrow=none;html=1;fontSize=20;entryX=0.5;entryY=1;entryDx=0;entryDy=0;" edge="1" parent="1" target="qS-tOZRlUFg_2kntw544-20">
          <mxGeometry width="50" height="50" relative="1" as="geometry">
            <mxPoint x="230" y="740" as="sourcePoint"/>
            <mxPoint x="280" y="690" as="targetPoint"/>
          </mxGeometry>
        </mxCell>
        <mxCell id="qS-tOZRlUFg_2kntw544-23" value="Continuous feed of&amp;nbsp;/db/_changes" style="text;html=1;resizable=0;autosize=1;align=center;verticalAlign=middle;points=[];fillColor=none;strokeColor=none;rounded=0;" vertex="1" parent="1">
          <mxGeometry x="25" y="695" width="190" height="20" as="geometry"/>
        </mxCell>
        <mxCell id="qS-tOZRlUFg_2kntw544-39" value="Create Credit Reserved Event" style="rounded=1;whiteSpace=wrap;html=1;absoluteArcSize=1;arcSize=14;strokeWidth=2;fillColor=#ffe6cc;strokeColor=#d79b00;" vertex="1" parent="1">
          <mxGeometry x="631" y="261.5" width="59" height="59" as="geometry"/>
        </mxCell>
        <mxCell id="qS-tOZRlUFg_2kntw544-40" value="Reserve Credit" style="rounded=1;whiteSpace=wrap;html=1;absoluteArcSize=1;arcSize=14;strokeWidth=2;fillColor=#ffe6cc;strokeColor=#d79b00;" vertex="1" parent="1">
          <mxGeometry x="530" y="261.5" width="59" height="59" as="geometry"/>
        </mxCell>
        <mxCell id="qS-tOZRlUFg_2kntw544-41" value="" style="endArrow=block;endFill=1;endSize=6;html=1;fontSize=20;" edge="1" parent="1" target="qS-tOZRlUFg_2kntw544-18">
          <mxGeometry width="100" relative="1" as="geometry">
            <mxPoint x="560" y="320.5" as="sourcePoint"/>
            <mxPoint x="660" y="320.5" as="targetPoint"/>
          </mxGeometry>
        </mxCell>
        <mxCell id="qS-tOZRlUFg_2kntw544-43" value="" style="endArrow=block;endFill=1;endSize=6;html=1;fontSize=20;exitX=0.5;exitY=1;exitDx=0;exitDy=0;" edge="1" parent="1" source="qS-tOZRlUFg_2kntw544-39" target="qS-tOZRlUFg_2kntw544-18">
          <mxGeometry width="100" relative="1" as="geometry">
            <mxPoint x="650" y="320.5" as="sourcePoint"/>
            <mxPoint x="750" y="320.5" as="targetPoint"/>
          </mxGeometry>
        </mxCell>
        <mxCell id="qS-tOZRlUFg_2kntw544-44" value="" style="endArrow=block;endFill=1;endSize=6;html=1;fontSize=20;exitX=0.5;exitY=1;exitDx=0;exitDy=0;" edge="1" parent="1" source="qS-tOZRlUFg_2kntw544-18">
          <mxGeometry width="100" relative="1" as="geometry">
            <mxPoint x="420" y="470" as="sourcePoint"/>
            <mxPoint x="340" y="580" as="targetPoint"/>
          </mxGeometry>
        </mxCell>
        <mxCell id="qS-tOZRlUFg_2kntw544-45" value="" style="startArrow=oval;startFill=0;startSize=7;endArrow=block;endFill=0;endSize=10;dashed=1;html=1;fontSize=20;exitX=0;exitY=0;exitDx=0;exitDy=0;" edge="1" parent="1" source="PRXkoPq4WOW4vHOm3imV-24">
          <mxGeometry width="100" relative="1" as="geometry">
            <mxPoint x="489" y="520" as="sourcePoint"/>
            <mxPoint x="340" y="370" as="targetPoint"/>
          </mxGeometry>
        </mxCell>
        <mxCell id="qS-tOZRlUFg_2kntw544-47" value="Subscribes to customer topic" style="text;html=1;resizable=0;autosize=1;align=center;verticalAlign=middle;points=[];fillColor=none;strokeColor=none;rounded=0;" vertex="1" parent="1">
          <mxGeometry x="540" y="485" width="170" height="20" as="geometry"/>
        </mxCell>
        <mxCell id="qS-tOZRlUFg_2kntw544-48" value="Subscribes to order topic" style="text;html=1;resizable=0;autosize=1;align=center;verticalAlign=middle;points=[];fillColor=none;strokeColor=none;rounded=0;" vertex="1" parent="1">
          <mxGeometry x="350" y="441" width="150" height="20" as="geometry"/>
        </mxCell>
      </root>
    </mxGraphModel>
  </diagram>
</mxfile>
